<svg xmlns="http://www.w3.org/2000/svg" xmlns:xlink="http://www.w3.org/1999/xlink" preserveAspectRatio="xMidYMid" width="51" height="36" viewBox="0 0 51 36">
  <defs>
    <style>

      .cls-2 {
        fill: #000000;
        filter: url(#color-overlay-1);
      }
    </style>

    <filter id="color-overlay-1" filterUnits="userSpaceOnUse">
      <feFlood flood-color="#555555" flood-opacity="1"/>
      <feComposite operator="in" in2="SourceGraphic"/>
      <feBlend mode="normal" in2="SourceGraphic" result="colorOverlay"/>
    </filter>
  </defs>
  <path d="M50.661,13.997 C50.661,13.997 41.171,33.419 41.171,33.419 C40.576,34.640 38.979,35.640 37.628,35.640 C37.628,35.640 2.330,35.640 2.330,35.640 C0.980,35.640 0.362,34.638 0.961,33.419 C0.961,33.419 10.453,13.997 10.453,13.997 C11.046,12.774 12.642,11.771 13.992,11.771 C13.992,11.771 49.290,11.771 49.290,11.771 C50.644,11.771 51.259,12.774 50.661,13.997 ZM8.250,12.901 C8.250,12.901 -0.012,29.804 -0.012,29.804 C-0.012,29.804 -0.012,7.639 -0.012,7.639 C-0.012,6.275 1.093,5.157 2.446,5.159 C2.446,5.159 13.262,5.159 13.262,5.159 C13.262,5.159 13.262,3.714 13.262,3.714 C13.262,2.719 13.644,1.791 14.344,1.087 C15.043,0.379 15.967,-0.009 16.951,-0.009 C16.951,-0.009 23.241,-0.009 23.241,-0.009 C25.270,-0.009 26.925,1.658 26.925,3.714 C26.925,3.714 26.925,5.157 26.925,5.157 C26.925,5.157 37.741,5.157 37.741,5.157 C39.092,5.157 40.199,6.275 40.199,7.639 C40.199,7.639 40.199,9.293 40.199,9.293 C40.199,9.293 13.992,9.293 13.992,9.293 C11.725,9.293 9.252,10.843 8.250,12.901 ZM15.720,5.159 C15.720,5.159 24.467,5.159 24.467,5.159 C24.467,5.159 24.467,3.714 24.467,3.714 C24.467,3.026 23.917,2.472 23.239,2.472 C23.239,2.472 16.948,2.472 16.948,2.472 C16.622,2.472 16.313,2.601 16.082,2.839 C15.852,3.074 15.720,3.386 15.720,3.714 C15.720,3.714 15.720,5.159 15.720,5.159 Z" id="path-1" class="cls-2" fill-rule="evenodd"/>
</svg>
