<svg xmlns="http://www.w3.org/2000/svg" xmlns:xlink="http://www.w3.org/1999/xlink" preserveAspectRatio="xMidYMid" width="44" height="44" viewBox="0 0 44 44">
  <defs>
    <style>

      .cls-2 {
        fill: #000000;
        filter: url(#color-overlay-1);
      }
    </style>

    <filter id="color-overlay-1" filterUnits="userSpaceOnUse">
      <feFlood flood-color="#555555" flood-opacity="1"/>
      <feComposite operator="in" in2="SourceGraphic"/>
      <feBlend mode="normal" in2="SourceGraphic" result="colorOverlay"/>
    </filter>
  </defs>
  <path d="M43.552,21.787 C43.552,20.167 42.386,18.438 40.947,17.931 C39.507,17.421 38.112,16.173 37.706,15.188 C37.300,14.206 37.406,12.333 38.061,10.954 C38.717,9.575 38.320,7.528 37.175,6.380 C36.029,5.234 33.982,4.839 32.602,5.495 C31.222,6.152 29.352,6.259 28.371,5.852 C27.390,5.447 26.142,4.050 25.630,2.611 C25.118,1.171 23.389,0.005 21.769,0.005 C20.148,0.005 18.419,1.171 17.907,2.611 C17.395,4.050 16.147,5.446 15.166,5.852 C14.185,6.259 12.315,6.152 10.935,5.495 C9.557,4.839 7.508,5.234 6.362,6.380 C5.217,7.528 4.820,9.575 5.476,10.954 C6.132,12.334 6.236,14.204 5.829,15.187 C5.421,16.169 4.030,17.421 2.591,17.931 C1.151,18.438 -0.015,20.167 -0.015,21.787 C-0.015,23.408 1.151,25.136 2.591,25.648 C4.030,26.160 5.423,27.412 5.831,28.391 C6.239,29.372 6.132,31.242 5.476,32.621 C4.820,33.999 5.217,36.047 6.362,37.193 C7.508,38.340 9.555,38.737 10.935,38.080 C12.315,37.424 14.185,37.318 15.166,37.726 C16.148,38.134 17.395,39.532 17.907,40.970 C18.419,42.406 20.148,43.571 21.769,43.571 C23.389,43.571 25.118,42.406 25.630,40.970 C26.142,39.532 27.388,38.134 28.369,37.724 C29.350,37.316 31.222,37.424 32.602,38.080 C33.981,38.737 36.029,38.340 37.175,37.193 C38.320,36.047 38.717,33.999 38.061,32.621 C37.406,31.241 37.298,29.371 37.704,28.391 C38.110,27.409 39.507,26.160 40.947,25.648 C42.386,25.136 43.552,23.408 43.552,21.787 ZM21.769,29.779 C17.349,29.779 13.775,26.208 13.775,21.796 C13.775,17.378 17.349,13.803 21.769,13.803 C26.179,13.803 29.753,17.378 29.753,21.796 C29.753,26.208 26.179,29.779 21.769,29.779 Z" id="path-1" class="cls-2" fill-rule="evenodd"/>
</svg>
