<svg xmlns="http://www.w3.org/2000/svg" xmlns:xlink="http://www.w3.org/1999/xlink" preserveAspectRatio="xMidYMid" width="25" height="25" viewBox="0 0 25 25">
  <defs>
    <style>

      .cls-2 {
        fill: #000000;
        filter: url(#color-overlay-1);
      }
    </style>

    <filter id="color-overlay-1" filterUnits="userSpaceOnUse">
      <feFlood flood-color="#c7b299" flood-opacity="1"/>
      <feComposite operator="in" in2="SourceGraphic"/>
      <feBlend mode="normal" in2="SourceGraphic" result="colorOverlay"/>
    </filter>
  </defs>
  <path d="M22.812,10.523 C22.812,10.523 20.886,12.451 20.886,12.451 C20.886,12.451 17.699,15.640 17.699,15.640 C17.545,15.810 17.358,15.964 17.187,16.100 C15.415,17.499 13.063,17.805 11.034,17.005 C10.284,16.714 9.569,16.254 8.955,15.640 C8.955,15.640 11.597,12.996 11.597,12.996 C12.551,13.952 14.102,13.952 15.057,12.996 C15.057,12.996 17.085,10.968 17.085,10.968 C17.085,10.968 20.170,7.880 20.170,7.880 C21.124,6.925 21.124,5.373 20.170,4.418 C19.215,3.463 17.665,3.463 16.710,4.418 C16.710,4.418 14.256,6.875 14.256,6.875 C12.722,6.158 10.966,6.038 9.347,6.499 C9.347,6.499 14.068,1.775 14.068,1.775 C16.471,-0.630 20.409,-0.630 22.812,1.775 C25.232,4.196 25.232,8.118 22.812,10.523 ZM13.574,7.574 C14.324,7.863 15.040,8.324 15.653,8.938 C15.653,8.938 13.011,11.582 13.011,11.582 C12.057,10.626 10.506,10.626 9.552,11.582 C9.552,11.582 4.438,16.697 4.438,16.697 C3.484,17.653 3.484,19.204 4.438,20.160 C5.393,21.115 6.944,21.115 7.898,20.160 C7.898,20.160 10.250,17.805 10.250,17.805 C12.262,18.608 12.807,18.676 15.159,18.130 C15.159,18.130 10.540,22.803 10.540,22.803 C8.137,25.209 4.200,25.209 1.797,22.803 C-0.607,20.398 -0.607,16.459 1.797,14.055 C1.797,14.055 6.910,8.938 6.910,8.938 C6.978,8.870 7.063,8.784 7.148,8.716 C8.938,7.112 11.443,6.720 13.574,7.574 Z" id="path-1" class="cls-2" fill-rule="evenodd"/>
</svg>
