<svg xmlns="http://www.w3.org/2000/svg" xmlns:xlink="http://www.w3.org/1999/xlink" preserveAspectRatio="xMidYMid" width="25" height="25" viewBox="0 0 25 25">
  <defs>
    <style>

      .cls-2 {
        fill: #000000;
        filter: url(#color-overlay-1);
      }
    </style>

    <filter id="color-overlay-1" filterUnits="userSpaceOnUse">
      <feFlood flood-color="#ffffff" flood-opacity="1"/>
      <feComposite operator="in" in2="SourceGraphic"/>
      <feBlend mode="normal" in2="SourceGraphic" result="colorOverlay"/>
    </filter>
  </defs>
  <path d="M24.675,23.984 C24.354,24.302 23.933,24.458 23.512,24.458 C23.091,24.458 22.670,24.301 22.349,23.984 C22.349,23.984 18.013,19.713 18.013,19.713 C16.121,21.160 13.754,22.031 11.178,22.031 C5.012,22.031 -0.004,17.088 -0.004,11.015 C-0.004,4.941 5.012,-0.002 11.178,-0.002 C17.344,-0.002 22.359,4.941 22.359,11.015 C22.359,13.385 21.589,15.577 20.291,17.376 C20.291,17.376 24.675,21.694 24.675,21.694 C25.317,22.327 25.317,23.353 24.675,23.984 ZM11.178,2.590 C6.464,2.590 2.628,6.370 2.628,11.015 C2.628,15.659 6.463,19.438 11.178,19.440 C13.283,19.440 15.209,18.683 16.700,17.436 C17.160,17.052 17.574,16.618 17.943,16.148 C19.059,14.726 19.729,12.947 19.729,11.015 C19.729,6.370 15.893,2.590 11.178,2.590 ZM16.029,9.393 C15.843,9.481 15.647,9.524 15.453,9.524 C14.966,9.524 14.498,9.257 14.270,8.795 C13.566,7.371 12.130,6.486 10.523,6.486 C9.797,6.486 9.207,5.907 9.207,5.189 C9.207,4.475 9.797,3.894 10.523,3.894 C13.143,3.894 15.486,5.337 16.635,7.660 C16.954,8.303 16.682,9.079 16.029,9.393 Z" id="path-1" class="cls-2" fill-rule="evenodd"/>
</svg>
