<svg xmlns="http://www.w3.org/2000/svg" xmlns:xlink="http://www.w3.org/1999/xlink" preserveAspectRatio="xMidYMid" width="48" height="48" viewBox="0 0 48 48">
  <defs>
    <style>

      .cls-2 {
        fill: #000000;
        filter: url(#color-overlay-1);
      }
    </style>

    <filter id="color-overlay-1" filterUnits="userSpaceOnUse">
      <feFlood flood-color="#555555" flood-opacity="1"/>
      <feComposite operator="in" in2="SourceGraphic"/>
      <feBlend mode="normal" in2="SourceGraphic" result="colorOverlay"/>
    </filter>
  </defs>
  <path d="M47.137,18.842 C47.137,18.842 32.871,33.110 32.871,33.110 C32.871,33.110 0.003,47.588 0.003,47.588 C0.003,47.588 14.480,14.716 14.480,14.716 C14.480,14.716 28.747,0.452 28.747,0.452 C29.367,-0.169 30.373,-0.169 30.996,0.452 C31.617,1.075 31.617,2.080 30.996,2.701 C30.996,2.701 17.152,16.547 17.152,16.547 C17.152,16.547 8.575,36.013 8.575,36.013 C8.575,36.013 11.574,39.012 11.574,39.012 C11.574,39.012 31.042,30.439 31.042,30.439 C31.042,30.439 44.888,16.595 44.888,16.595 C45.508,15.972 46.512,15.972 47.137,16.595 C47.758,17.215 47.758,18.225 47.137,18.842 ZM29.214,27.591 C28.902,27.898 28.496,28.056 28.089,28.056 C27.680,28.056 27.274,27.898 26.964,27.591 C26.344,26.968 26.344,25.961 26.964,25.341 C26.964,25.341 40.296,12.010 40.296,12.010 C40.919,11.385 41.923,11.385 42.545,12.010 C43.168,12.630 43.168,13.635 42.545,14.259 C42.545,14.259 29.214,27.591 29.214,27.591 ZM25.734,24.110 C25.424,24.418 25.018,24.575 24.609,24.575 C24.203,24.575 23.795,24.418 23.484,24.110 C22.862,23.489 22.862,22.479 23.484,21.860 C23.484,21.860 36.817,8.528 36.817,8.528 C37.439,7.905 38.443,7.905 39.067,8.528 C39.688,9.148 39.688,10.155 39.067,10.778 C39.067,10.778 25.734,24.110 25.734,24.110 ZM22.253,20.627 C21.942,20.939 21.534,21.093 21.128,21.093 C20.722,21.093 20.314,20.939 20.003,20.627 C19.382,20.008 19.382,18.998 20.003,18.378 C20.003,18.378 33.335,5.047 33.335,5.047 C33.958,4.423 34.964,4.423 35.585,5.047 C36.208,5.667 36.208,6.673 35.585,7.297 C35.585,7.297 22.253,20.627 22.253,20.627 Z" id="path-1" class="cls-2" fill-rule="evenodd"/>
</svg>
