<svg xmlns="http://www.w3.org/2000/svg" xmlns:xlink="http://www.w3.org/1999/xlink" preserveAspectRatio="xMidYMid" width="856" height="132" viewBox="0 0 856 132">
  <defs>
    <style>

      .cls-3 {
        stroke: #ffffff;
        stroke-linecap: round;
        stroke-width: 1px;
        stroke-dasharray: 0.001,5;
        fill: none;
        opacity: 0.5;
      }

      .cls-4 {
        fill: #333333;
      }

      .cls-5 {
        fill: #5474fd;
      }

      .cls-7 {
        fill: #ff6363;
      }

      .cls-9 {
        fill: #00a2ff;
      }
    </style>
  </defs>
  <g id="groupsvg">
    <path d="M41.500,95.500 C41.500,95.500 233.977,-116.958 434.559,95.500 C434.559,95.500 610.827,-118.254 818.500,95.500 " id="path-1" class="cls-3" fill-rule="evenodd"/>
    <circle id="circle-1" class="cls-4" cx="48" cy="82" r="48"/>
    <path d="M76.266,107.812 C76.266,107.812 73.312,110.766 73.312,110.766 C73.312,110.766 57.000,94.453 57.000,94.453 C56.062,95.297 55.031,96.048 53.906,96.703 C52.781,97.360 51.608,97.922 50.391,98.391 C49.171,98.861 47.881,99.212 46.523,99.445 C45.163,99.680 43.827,99.797 42.516,99.797 C39.327,99.797 36.350,99.188 33.586,97.969 C30.820,96.751 28.405,95.110 26.344,93.047 C24.280,90.986 22.663,88.571 21.492,85.805 C20.319,83.040 19.734,80.109 19.734,77.016 C19.734,73.830 20.319,70.852 21.492,68.086 C22.663,65.322 24.280,62.907 26.344,60.844 C28.405,58.783 30.820,57.165 33.586,55.992 C36.350,54.821 39.327,54.234 42.516,54.234 C45.609,54.234 48.538,54.821 51.305,55.992 C54.069,57.165 56.484,58.783 58.547,60.844 C60.608,62.907 62.249,65.322 63.469,68.086 C64.686,70.852 65.297,73.830 65.297,77.016 C65.297,78.329 65.178,79.665 64.945,81.023 C64.710,82.383 64.359,83.673 63.891,84.890 C63.420,86.110 62.858,87.281 62.203,88.406 C61.546,89.531 60.797,90.564 59.953,91.500 C59.953,91.500 76.266,107.812 76.266,107.812 C76.266,107.812 76.266,107.812 76.266,107.812 ZM22.125,77.016 C22.125,79.828 22.639,82.454 23.672,84.890 C24.702,87.329 26.155,89.485 28.031,91.359 C29.905,93.236 32.085,94.712 34.570,95.789 C37.053,96.868 39.703,97.406 42.516,97.406 C45.328,97.406 47.952,96.868 50.391,95.789 C52.827,94.712 54.983,93.236 56.859,91.359 C58.734,89.485 60.210,87.329 61.289,84.890 C62.366,82.454 62.906,79.828 62.906,77.016 C62.906,74.203 62.366,71.555 61.289,69.070 C60.210,66.587 58.734,64.408 56.859,62.531 C54.983,60.657 52.827,59.204 50.391,58.172 C47.952,57.141 45.328,56.625 42.516,56.625 C39.703,56.625 37.053,57.141 34.570,58.172 C32.085,59.204 29.905,60.657 28.031,62.531 C26.155,64.408 24.702,66.587 23.672,69.070 C22.639,71.555 22.125,74.203 22.125,77.016 C22.125,77.016 22.125,77.016 22.125,77.016 Z" id="path-2" class="cls-5" fill-rule="evenodd"/>
    <circle id="circle-2" class="cls-4" cx="428" cy="84" r="48"/>
    <path d="M428.000,53.547 C432.124,53.547 436.016,54.320 439.672,55.867 C443.328,57.414 446.514,59.548 449.234,62.265 C451.952,64.986 454.086,68.172 455.633,71.828 C457.180,75.484 457.953,79.376 457.953,83.500 C457.953,87.626 457.180,91.515 455.633,95.172 C454.086,98.828 451.952,102.016 449.234,104.734 C446.514,107.454 443.328,109.586 439.672,111.133 C436.016,112.679 432.124,113.453 428.000,113.453 C423.873,113.453 419.984,112.679 416.328,111.133 C412.672,109.586 409.484,107.454 406.766,104.734 C404.045,102.016 401.914,98.828 400.367,95.172 C398.820,91.515 398.047,87.626 398.047,83.500 C398.047,79.376 398.820,75.484 400.367,71.828 C401.914,68.172 404.045,64.986 406.766,62.265 C409.484,59.548 412.672,57.414 416.328,55.867 C419.984,54.320 423.873,53.547 428.000,53.547 C428.000,53.547 428.000,53.547 428.000,53.547 ZM428.000,111.062 C431.843,111.062 435.429,110.337 438.758,108.883 C442.084,107.430 445.016,105.486 447.547,103.047 C449.984,100.516 451.928,97.587 453.383,94.258 C454.835,90.931 455.562,87.345 455.562,83.500 C455.562,79.657 454.835,76.071 453.383,72.742 C451.928,69.415 449.984,66.484 447.547,63.953 C445.016,61.516 442.084,59.572 438.758,58.117 C435.429,56.665 431.843,55.937 428.000,55.937 C424.155,55.937 420.569,56.665 417.242,58.117 C413.913,59.572 410.984,61.516 408.453,63.953 C406.014,66.484 404.070,69.415 402.617,72.742 C401.163,76.071 400.437,79.657 400.437,83.500 C400.437,87.345 401.163,90.931 402.617,94.258 C404.070,97.587 406.014,100.516 408.453,103.047 C410.984,105.486 413.913,107.430 417.242,108.883 C420.569,110.337 424.155,111.062 428.000,111.062 C428.000,111.062 428.000,111.062 428.000,111.062 ZM443.047,72.812 C443.328,72.439 443.726,72.250 444.242,72.250 C444.756,72.250 445.202,72.439 445.578,72.812 C445.859,73.188 446.000,73.634 446.000,74.148 C446.000,74.665 445.811,75.062 445.437,75.344 C445.437,75.344 424.906,95.312 424.906,95.312 C424.812,95.501 424.647,95.618 424.414,95.664 C424.179,95.712 423.968,95.734 423.781,95.734 C423.500,95.734 423.241,95.712 423.008,95.664 C422.773,95.618 422.608,95.501 422.516,95.312 C422.516,95.312 414.500,87.297 414.500,87.297 C414.124,86.923 413.938,86.477 413.938,85.961 C413.938,85.447 414.124,85.047 414.500,84.765 C414.781,84.392 415.179,84.203 415.695,84.203 C416.209,84.203 416.655,84.392 417.031,84.765 C417.031,84.765 423.781,91.515 423.781,91.515 C423.781,91.515 443.047,72.812 443.047,72.812 C443.047,72.812 443.047,72.812 443.047,72.812 Z" id="path-3" class="cls-7" fill-rule="evenodd"/>
    <circle id="circle-3" class="cls-4" cx="808" cy="84" r="48"/>
    <path d="M838.586,82.656 C838.586,83.313 838.491,83.922 838.305,84.484 C838.116,85.047 837.834,85.563 837.461,86.031 C837.085,86.501 836.663,86.875 836.195,87.156 C835.725,87.437 835.211,87.672 834.648,87.859 C834.930,88.329 835.163,88.822 835.351,89.336 C835.538,89.852 835.633,90.439 835.633,91.094 C835.633,91.656 835.538,92.219 835.351,92.781 C835.163,93.344 834.930,93.860 834.648,94.328 C834.273,94.704 833.851,95.055 833.383,95.383 C832.912,95.712 832.445,95.969 831.977,96.156 C832.258,96.626 832.491,97.140 832.680,97.703 C832.866,98.266 832.961,98.828 832.961,99.391 C832.961,100.047 832.866,100.634 832.680,101.148 C832.491,101.665 832.258,102.157 831.977,102.625 C831.601,103.095 831.179,103.493 830.711,103.820 C830.241,104.150 829.726,104.361 829.164,104.453 C829.538,104.923 829.819,105.416 830.008,105.929 C830.195,106.446 830.289,107.033 830.289,107.687 C830.289,108.344 830.148,109.001 829.867,109.656 C829.586,110.313 829.210,110.876 828.742,111.344 C828.180,111.814 827.569,112.187 826.914,112.469 C826.257,112.750 825.554,112.890 824.805,112.890 C824.805,112.890 806.242,112.890 806.242,112.890 C805.585,112.890 804.836,112.798 803.992,112.609 C803.148,112.423 802.256,112.141 801.320,111.766 C800.382,111.484 799.444,111.133 798.508,110.711 C797.570,110.289 796.631,109.891 795.695,109.515 C794.570,109.047 793.467,108.580 792.391,108.109 C791.312,107.641 790.538,107.406 790.070,107.406 C790.070,107.406 777.273,107.406 777.273,107.406 C777.273,107.406 777.273,79.984 777.273,79.984 C777.273,79.984 778.398,79.844 778.398,79.844 C783.742,79.844 787.398,79.844 789.367,79.844 C790.211,79.844 790.984,79.751 791.687,79.562 C792.391,79.376 793.116,79.000 793.867,78.437 C794.711,77.969 795.671,77.312 796.750,76.469 C797.827,75.625 799.116,74.594 800.617,73.375 C803.522,70.938 805.234,67.890 805.750,64.234 C806.264,60.578 806.523,58.469 806.523,57.906 C806.523,57.344 806.664,56.805 806.945,56.289 C807.226,55.775 807.600,55.375 808.070,55.094 C808.538,54.720 809.030,54.461 809.547,54.320 C810.061,54.179 810.553,54.109 811.023,54.109 C811.773,54.109 812.522,54.204 813.273,54.390 C814.023,54.579 814.726,55.001 815.383,55.656 C816.038,56.313 816.554,57.181 816.930,58.258 C817.303,59.337 817.492,60.767 817.492,62.547 C817.492,64.142 817.373,65.665 817.141,67.117 C816.906,68.572 816.600,69.954 816.226,71.266 C815.945,72.579 815.594,73.775 815.172,74.851 C814.750,75.930 814.398,76.844 814.117,77.594 C814.117,77.594 833.242,77.594 833.242,77.594 C834.086,77.594 834.811,77.712 835.422,77.945 C836.031,78.180 836.617,78.532 837.180,79.000 C837.648,79.470 837.999,80.009 838.234,80.617 C838.467,81.228 838.586,81.907 838.586,82.656 C838.586,82.656 838.586,82.656 838.586,82.656 C838.586,82.656 838.586,82.656 838.586,82.656 ZM833.242,85.609 C833.710,85.609 834.132,85.539 834.508,85.398 C834.881,85.258 835.163,85.047 835.351,84.765 C835.633,84.484 835.866,84.181 836.055,83.852 C836.241,83.524 836.336,83.126 836.336,82.656 C836.336,81.907 836.055,81.250 835.492,80.687 C834.930,80.125 834.178,79.844 833.242,79.844 C833.242,79.844 824.805,79.844 824.805,79.844 C824.805,79.938 824.805,79.938 824.805,79.844 C824.805,79.844 810.320,79.844 810.320,79.844 C810.320,79.844 811.164,78.156 811.164,78.156 C813.788,71.687 815.102,66.484 815.102,62.547 C815.102,59.453 814.585,57.649 813.555,57.133 C812.522,56.618 811.678,56.359 811.023,56.359 C810.742,56.359 810.320,56.500 809.758,56.781 C809.195,57.062 808.914,57.438 808.914,57.906 C808.914,58.469 808.866,59.407 808.773,60.719 C808.679,62.033 808.398,63.531 807.930,65.219 C807.459,66.906 806.780,68.642 805.891,70.422 C804.999,72.204 803.757,73.751 802.164,75.062 C800.569,76.376 799.233,77.477 798.156,78.367 C797.077,79.259 796.069,79.984 795.133,80.547 C794.194,81.109 793.256,81.531 792.320,81.812 C791.382,82.094 790.398,82.234 789.367,82.234 C788.616,82.234 787.796,82.234 786.906,82.234 C786.014,82.234 785.100,82.234 784.164,82.234 C783.320,82.234 782.498,82.234 781.703,82.234 C780.905,82.234 780.227,82.234 779.664,82.234 C779.664,82.234 779.664,105.016 779.664,105.016 C779.664,105.016 790.070,105.016 790.070,105.016 C790.725,105.016 791.593,105.226 792.672,105.648 C793.748,106.070 795.084,106.611 796.680,107.265 C797.429,107.641 798.248,108.039 799.141,108.461 C800.030,108.883 800.898,109.234 801.742,109.515 C802.678,109.797 803.522,110.056 804.273,110.289 C805.023,110.524 805.680,110.641 806.242,110.641 C806.242,110.641 821.851,110.641 821.851,110.641 C821.851,110.641 824.805,110.641 824.805,110.641 C825.273,110.641 825.695,110.548 826.070,110.359 C826.444,110.172 826.773,109.937 827.055,109.656 C827.336,109.469 827.547,109.188 827.687,108.812 C827.828,108.439 827.898,108.063 827.898,107.687 C827.898,107.219 827.828,106.822 827.687,106.492 C827.547,106.165 827.336,105.859 827.055,105.578 C826.773,105.297 826.444,105.086 826.070,104.945 C825.695,104.805 825.273,104.734 824.805,104.734 C824.805,104.734 824.523,104.734 824.523,104.734 C824.523,104.734 824.523,102.344 824.523,102.344 C824.523,102.344 827.758,102.344 827.758,102.344 C828.131,102.344 828.507,102.273 828.883,102.133 C829.256,101.992 829.586,101.781 829.867,101.500 C830.054,101.219 830.241,100.891 830.430,100.516 C830.616,100.142 830.711,99.766 830.711,99.391 C830.711,99.017 830.616,98.641 830.430,98.266 C830.241,97.892 830.054,97.562 829.867,97.281 C829.586,97.094 829.256,96.907 828.883,96.719 C828.507,96.532 828.131,96.437 827.758,96.437 C827.758,96.437 826.773,96.437 826.773,96.437 C826.773,96.437 826.773,94.047 826.773,94.047 C826.773,94.047 830.289,94.047 830.289,94.047 C830.663,94.047 831.038,93.976 831.414,93.836 C831.788,93.695 832.117,93.484 832.398,93.203 C832.680,92.922 832.912,92.594 833.102,92.219 C833.288,91.845 833.383,91.469 833.383,91.094 C833.383,90.626 833.288,90.204 833.102,89.828 C832.912,89.454 832.680,89.173 832.398,88.984 C832.117,88.703 831.788,88.470 831.414,88.281 C831.038,88.094 830.663,88.000 830.289,88.000 C830.289,88.000 829.164,88.000 829.164,88.000 C829.164,88.000 829.164,85.609 829.164,85.609 C829.164,85.609 833.242,85.609 833.242,85.609 C833.242,85.609 833.242,85.609 833.242,85.609 C833.242,85.609 833.242,85.609 833.242,85.609 C833.242,85.609 833.242,85.609 833.242,85.609 C833.242,85.609 833.242,85.609 833.242,85.609 Z" id="path-4" class="cls-9" fill-rule="evenodd"/>
  </g>
</svg>
